# 3ds Max Wavefront OBJ Exporter v0.97b - (c)2007 guruware
# 创建的文件:25.08.2017 17:12:22

mtllib 栅栏.mtl

#
# object 立方体_1
#

v  -231.2500 1.4295 250.0000
v  -125.0000 1.4295 250.0000
v  -125.0000 13.9295 250.0000
v  -231.2500 13.9295 250.0000
v  0.0000 1.4295 250.0000
v  0.0000 13.9295 250.0000
v  125.0000 1.4295 250.0000
v  125.0000 13.9295 250.0000
v  231.2500 1.4295 250.0000
v  250.0000 1.4295 250.0000
v  250.0000 13.9295 250.0000
v  231.2500 13.9295 250.0000
v  -125.0000 26.4295 250.0000
v  -231.2500 26.4295 250.0000
v  0.0000 26.4295 250.0000
v  125.0000 26.4295 250.0000
v  231.2500 26.4295 250.0000
v  -125.0000 38.9295 250.0000
v  -231.2500 38.9295 250.0000
v  0.0000 38.9295 250.0000
v  125.0000 38.9295 250.0000
v  250.0000 26.4295 250.0000
v  250.0000 38.9295 250.0000
v  231.2500 38.9295 250.0000
v  -125.0000 51.4295 250.0000
v  -231.2500 51.4295 250.0000
v  0.0000 51.4295 250.0000
v  125.0000 51.4295 250.0000
v  250.0000 51.4295 250.0000
v  231.2500 51.4295 250.0000
v  250.0000 1.4295 231.2500
v  250.0000 13.9295 231.2500
v  250.0000 1.4295 0.0000
v  250.0000 13.9295 0.0000
v  250.0000 13.9295 125.0000
v  250.0000 1.4295 125.0000
v  250.0000 1.4295 -125.0000
v  250.0000 13.9295 -125.0000
v  250.0000 1.4295 -231.2500
v  250.0000 1.4295 -250.0000
v  250.0000 13.9295 -250.0000
v  250.0000 13.9295 -231.2500
v  250.0000 26.4295 125.0000
v  250.0000 26.4295 231.2500
v  250.0000 26.4295 0.0000
v  250.0000 26.4295 -125.0000
v  250.0000 26.4295 -231.2500
v  250.0000 38.9295 231.2500
v  250.0000 38.9295 0.0000
v  250.0000 38.9295 125.0000
v  250.0000 38.9295 -125.0000
v  250.0000 26.4295 -250.0000
v  250.0000 38.9295 -250.0000
v  250.0000 38.9295 -231.2500
v  250.0000 51.4295 125.0000
v  250.0000 51.4295 231.2500
v  250.0000 51.4295 0.0000
v  250.0000 51.4295 -125.0000
v  250.0000 51.4295 -250.0000
v  250.0000 51.4295 -231.2500
v  231.2500 1.4295 -250.0000
v  125.0000 1.4295 -250.0000
v  125.0000 13.9295 -250.0000
v  231.2500 13.9295 -250.0000
v  0.0000 1.4295 -250.0000
v  0.0000 13.9295 -250.0000
v  -125.0000 1.4295 -250.0000
v  -125.0000 13.9295 -250.0000
v  -231.2500 1.4295 -250.0000
v  -231.2500 13.9295 -250.0000
v  231.2500 26.4295 -250.0000
v  0.0000 26.4295 -250.0000
v  125.0000 26.4295 -250.0000
v  -125.0000 26.4295 -250.0000
v  -231.2500 26.4295 -250.0000
v  125.0000 38.9295 -250.0000
v  231.2500 38.9295 -250.0000
v  0.0000 38.9295 -250.0000
v  -125.0000 38.9295 -250.0000
v  -250.0000 26.4295 -250.0000
v  -250.0000 38.9295 -250.0000
v  -231.2500 38.9295 -250.0000
v  231.2500 51.4295 -250.0000
v  0.0000 51.4295 -250.0000
v  125.0000 51.4295 -250.0000
v  -125.0000 51.4295 -250.0000
v  -231.2500 51.4295 -250.0000
v  -250.0000 1.4295 -231.2500
v  -250.0000 1.4295 -125.0000
v  -250.0000 13.9295 -125.0000
v  -250.0000 13.9295 -231.2500
v  -250.0000 1.4295 0.0000
v  -250.0000 13.9295 0.0000
v  -250.0000 1.4295 125.0000
v  -250.0000 13.9295 125.0000
v  -250.0000 1.4295 231.2500
v  -250.0000 1.4295 250.0000
v  -250.0000 13.9295 250.0000
v  -250.0000 13.9295 231.2500
v  -250.0000 26.4295 -231.2500
v  -250.0000 13.9295 -250.0000
v  -250.0000 26.4295 0.0000
v  -250.0000 26.4295 -125.0000
v  -250.0000 26.4295 125.0000
v  -250.0000 26.4295 231.2500
v  -250.0000 38.9295 -125.0000
v  -250.0000 38.9295 -231.2500
v  -250.0000 38.9295 0.0000
v  -250.0000 38.9295 125.0000
v  -250.0000 26.4295 250.0000
v  -250.0000 38.9295 250.0000
v  -250.0000 38.9295 231.2500
v  -250.0000 51.4295 -231.2500
v  -250.0000 51.4295 -250.0000
v  -250.0000 51.4295 0.0000
v  -250.0000 51.4295 -125.0000
v  -250.0000 51.4295 125.0000
v  -250.0000 51.4295 231.2500
v  -125.0000 51.4295 231.2500
v  -231.2500 51.4295 231.2500
v  0.0000 51.4295 231.2500
v  125.0000 51.4295 231.2500
v  231.2500 51.4295 231.2500
v  231.2500 51.4295 125.0000
v  -250.0000 1.4295 -250.0000
v  231.2500 51.4295 0.0000
v  -231.2500 51.4295 0.0000
v  -231.2500 51.4295 -125.0000
v  -250.0000 51.4295 250.0000
v  -231.2500 51.4295 125.0000
v  -231.2500 51.4295 -231.2500
v  0.0000 51.4295 -231.2500
v  -125.0000 51.4295 -231.2500
v  -231.2500 1.4295 -125.0000
v  -231.2500 1.4295 -231.2500
v  -231.2500 1.4295 0.0000
v  0.0000 1.4295 -231.2500
v  -125.0000 1.4295 -231.2500
v  231.2500 1.4295 -231.2500
v  125.0000 1.4295 -231.2500
v  125.0000 51.4295 -231.2500
v  231.2500 1.4295 -125.0000
v  231.2500 1.4295 0.0000
v  -231.2500 1.4295 125.0000
v  231.2500 51.4295 -231.2500
v  -231.2500 1.4295 231.2500
v  -125.0000 1.4295 231.2500
v  231.2500 1.4295 125.0000
v  231.2500 1.4295 231.2500
v  0.0000 1.4295 231.2500
v  125.0000 1.4295 231.2500
v  231.2500 51.4295 -125.0000
# 152 vertices

vn 0.0000 -0.0000 1.0000
vn 1.0000 0.0000 -0.0000
vn 0.0000 0.0000 -1.0000
vn -1.0000 0.0000 -0.0000
vn 0.0000 1.0000 0.0000
vn 0.0000 -1.0000 -0.0000
# 6 vertex normals

vt 0.0375 0.0000 0.0000
vt 0.2500 0.0000 0.0000
vt 0.2500 0.2500 0.0000
vt 0.0375 0.2500 0.0000
vt 0.5000 0.0000 0.0000
vt 0.5000 0.2500 0.0000
vt 0.7500 0.0000 0.0000
vt 0.7500 0.2500 0.0000
vt 0.9625 0.0000 0.0000
vt 1.0000 0.0000 0.0000
vt 1.0000 0.2500 0.0000
vt 0.9625 0.2500 0.0000
vt 0.2500 0.5000 0.0000
vt 0.0375 0.5000 0.0000
vt 0.5000 0.5000 0.0000
vt 0.7500 0.5000 0.0000
vt 0.9625 0.5000 0.0000
vt 0.2500 0.7500 0.0000
vt 0.0375 0.7500 0.0000
vt 0.5000 0.7500 0.0000
vt 0.7500 0.7500 0.0000
vt 1.0000 0.5000 0.0000
vt 1.0000 0.7500 0.0000
vt 0.9625 0.7500 0.0000
vt 0.2500 1.0000 0.0000
vt 0.0375 1.0000 0.0000
vt 0.5000 1.0000 0.0000
vt 0.7500 1.0000 0.0000
vt 1.0000 1.0000 0.0000
vt 0.9625 1.0000 0.0000
vt 0.0000 0.2500 0.0000
vt 0.0000 0.0000 0.0000
vt 0.0000 0.7500 0.0000
vt 0.0000 0.5000 0.0000
vt 0.0000 1.0000 0.0000
vt 0.2500 0.0375 0.0000
vt 0.0375 0.0375 0.0000
vt 0.5000 0.0375 0.0000
vt 0.7500 0.0375 0.0000
vt 0.9625 0.0375 0.0000
vt 1.0000 0.0375 0.0000
vt 0.0000 0.0375 0.0000
vt 0.0375 0.9625 0.0000
vt 0.0000 0.9625 0.0000
vt 0.5000 0.9625 0.0000
vt 0.2500 0.9625 0.0000
vt 0.7500 0.9625 0.0000
vt 0.9625 0.9625 0.0000
vt 1.0000 0.9625 0.0000
# 49 texture coords

g 立方体_1
usemtl 01___Default
s off
f 1/1/1 2/2/1 3/3/1 
f 3/3/1 4/4/1 1/1/1 
f 5/5/1 6/6/1 3/3/1 
f 3/3/1 2/2/1 5/5/1 
f 7/7/1 8/8/1 6/6/1 
f 6/6/1 5/5/1 7/7/1 
f 9/9/1 10/10/1 11/11/1 
f 11/11/1 12/12/1 9/9/1 
f 4/4/1 3/3/1 13/13/1 
f 13/13/1 14/14/1 4/4/1 
f 6/6/1 15/15/1 13/13/1 
f 13/13/1 3/3/1 6/6/1 
f 8/8/1 16/16/1 15/15/1 
f 15/15/1 6/6/1 8/8/1 
f 12/12/1 17/17/1 16/16/1 
f 16/16/1 8/8/1 12/12/1 
f 14/14/1 13/13/1 18/18/1 
f 18/18/1 19/19/1 14/14/1 
f 15/15/1 20/20/1 18/18/1 
f 18/18/1 13/13/1 15/15/1 
f 16/16/1 21/21/1 20/20/1 
f 20/20/1 15/15/1 16/16/1 
f 17/17/1 22/22/1 23/23/1 
f 23/23/1 24/24/1 17/17/1 
f 19/19/1 18/18/1 25/25/1 
f 25/25/1 26/26/1 19/19/1 
f 20/20/1 27/27/1 25/25/1 
f 25/25/1 18/18/1 20/20/1 
f 21/21/1 28/28/1 27/27/1 
f 27/27/1 20/20/1 21/21/1 
f 24/24/1 23/23/1 29/29/1 
f 29/29/1 30/30/1 24/24/1 
f 31/1/2 32/4/2 11/31/2 
f 11/31/2 10/32/2 31/1/2 
f 33/5/2 34/6/2 35/3/2 
f 35/3/2 36/2/2 33/5/2 
f 37/7/2 38/8/2 34/6/2 
f 34/6/2 33/5/2 37/7/2 
f 39/9/2 40/10/2 41/11/2 
f 41/11/2 42/12/2 39/9/2 
f 32/4/2 35/3/2 43/13/2 
f 43/13/2 44/14/2 32/4/2 
f 34/6/2 45/15/2 43/13/2 
f 43/13/2 35/3/2 34/6/2 
f 38/8/2 46/16/2 45/15/2 
f 45/15/2 34/6/2 38/8/2 
f 42/12/2 47/17/2 46/16/2 
f 46/16/2 38/8/2 42/12/2 
f 44/14/2 48/19/2 23/33/2 
f 23/33/2 22/34/2 44/14/2 
f 45/15/2 49/20/2 50/18/2 
f 50/18/2 43/13/2 45/15/2 
f 46/16/2 51/21/2 49/20/2 
f 49/20/2 45/15/2 46/16/2 
f 47/17/2 52/22/2 53/23/2 
f 53/23/2 54/24/2 47/17/2 
f 48/19/2 50/18/2 55/25/2 
f 55/25/2 56/26/2 48/19/2 
f 49/20/2 57/27/2 55/25/2 
f 55/25/2 50/18/2 49/20/2 
f 51/21/2 58/28/2 57/27/2 
f 57/27/2 49/20/2 51/21/2 
f 54/24/2 53/23/2 59/29/2 
f 59/29/2 60/30/2 54/24/2 
f 61/1/3 62/2/3 63/3/3 
f 63/3/3 64/4/3 61/1/3 
f 65/5/3 66/6/3 63/3/3 
f 63/3/3 62/2/3 65/5/3 
f 67/7/3 68/8/3 66/6/3 
f 66/6/3 65/5/3 67/7/3 
f 69/9/3 70/12/3 68/8/3 
f 68/8/3 67/7/3 69/9/3 
f 64/4/3 71/14/3 52/34/3 
f 52/34/3 41/31/3 64/4/3 
f 66/6/3 72/15/3 73/13/3 
f 73/13/3 63/3/3 66/6/3 
f 68/8/3 74/16/3 72/15/3 
f 72/15/3 66/6/3 68/8/3 
f 70/12/3 75/17/3 74/16/3 
f 74/16/3 68/8/3 70/12/3 
f 71/14/3 73/13/3 76/18/3 
f 76/18/3 77/19/3 71/14/3 
f 72/15/3 78/20/3 76/18/3 
f 76/18/3 73/13/3 72/15/3 
f 74/16/3 79/21/3 78/20/3 
f 78/20/3 72/15/3 74/16/3 
f 75/17/3 80/22/3 81/23/3 
f 81/23/3 82/24/3 75/17/3 
f 77/19/3 83/26/3 59/35/3 
f 59/35/3 53/33/3 77/19/3 
f 78/20/3 84/27/3 85/25/3 
f 85/25/3 76/18/3 78/20/3 
f 79/21/3 86/28/3 84/27/3 
f 84/27/3 78/20/3 79/21/3 
f 82/24/3 87/30/3 86/28/3 
f 86/28/3 79/21/3 82/24/3 
f 88/1/4 89/2/4 90/3/4 
f 90/3/4 91/4/4 88/1/4 
f 92/5/4 93/6/4 90/3/4 
f 90/3/4 89/2/4 92/5/4 
f 94/7/4 95/8/4 93/6/4 
f 93/6/4 92/5/4 94/7/4 
f 96/9/4 97/10/4 98/11/4 
f 98/11/4 99/12/4 96/9/4 
f 91/4/4 100/14/4 80/34/4 
f 80/34/4 101/31/4 91/4/4 
f 93/6/4 102/15/4 103/13/4 
f 103/13/4 90/3/4 93/6/4 
f 95/8/4 104/16/4 102/15/4 
f 102/15/4 93/6/4 95/8/4 
f 99/12/4 105/17/4 104/16/4 
f 104/16/4 95/8/4 99/12/4 
f 100/14/4 103/13/4 106/18/4 
f 106/18/4 107/19/4 100/14/4 
f 102/15/4 108/20/4 106/18/4 
f 106/18/4 103/13/4 102/15/4 
f 104/16/4 109/21/4 108/20/4 
f 108/20/4 102/15/4 104/16/4 
f 105/17/4 110/22/4 111/23/4 
f 111/23/4 112/24/4 105/17/4 
f 107/19/4 113/26/4 114/35/4 
f 114/35/4 81/33/4 107/19/4 
f 108/20/4 115/27/4 116/25/4 
f 116/25/4 106/18/4 108/20/4 
f 109/21/4 117/28/4 115/27/4 
f 115/27/4 108/20/4 109/21/4 
f 112/24/4 118/30/4 117/28/4 
f 117/28/4 109/21/4 112/24/4 
f 26/1/5 25/2/5 119/36/5 
f 119/36/5 120/37/5 26/1/5 
f 27/5/5 121/38/5 119/36/5 
f 119/36/5 25/2/5 27/5/5 
f 28/7/5 122/39/5 121/38/5 
f 121/38/5 27/5/5 28/7/5 
f 123/40/5 56/41/5 55/11/5 
f 55/11/5 124/12/5 123/40/5 
f 69/9/3 125/10/3 101/11/3 
f 101/11/3 70/12/3 69/9/3 
f 70/12/3 101/11/3 80/22/3 
f 80/22/3 75/17/3 70/12/3 
f 82/24/3 79/21/3 74/16/3 
f 74/16/3 75/17/3 82/24/3 
f 124/12/5 55/11/5 57/22/5 
f 57/22/5 126/17/5 124/12/5 
f 127/14/5 128/19/5 116/33/5 
f 116/33/5 115/34/5 127/14/5 
f 82/24/3 81/23/3 114/29/3 
f 114/29/3 87/30/3 82/24/3 
f 120/37/5 118/42/5 129/32/5 
f 129/32/5 26/1/5 120/37/5 
f 127/14/5 115/34/5 117/31/5 
f 117/31/5 130/4/5 127/14/5 
f 128/19/5 131/43/5 113/44/5 
f 113/44/5 116/33/5 128/19/5 
f 132/45/5 84/27/5 86/25/5 
f 86/25/5 133/46/5 132/45/5 
f 134/4/6 89/31/6 88/42/6 
f 88/42/6 135/37/6 134/4/6 
f 136/14/6 92/34/6 89/31/6 
f 89/31/6 134/4/6 136/14/6 
f 107/19/4 81/33/4 80/34/4 
f 80/34/4 100/14/4 107/19/4 
f 65/5/6 137/38/6 138/36/6 
f 138/36/6 67/2/6 65/5/6 
f 107/19/4 106/18/4 116/25/4 
f 116/25/4 113/26/4 107/19/4 
f 61/9/6 139/40/6 140/39/6 
f 140/39/6 62/7/6 61/9/6 
f 131/43/5 87/26/5 114/35/5 
f 114/35/5 113/44/5 131/43/5 
f 135/37/6 88/42/6 125/32/6 
f 125/32/6 69/1/6 135/37/6 
f 141/47/5 85/28/5 84/27/5 
f 84/27/5 132/45/5 141/47/5 
f 142/12/6 37/11/6 33/22/6 
f 33/22/6 143/17/6 142/12/6 
f 136/14/6 144/19/6 94/33/6 
f 94/33/6 92/34/6 136/14/6 
f 145/48/5 83/30/5 85/28/5 
f 85/28/5 141/47/5 145/48/5 
f 135/37/6 69/1/6 67/2/6 
f 67/2/6 138/36/6 135/37/6 
f 137/38/6 65/5/6 62/7/6 
f 62/7/6 140/39/6 137/38/6 
f 146/43/6 147/46/6 2/25/6 
f 2/25/6 1/26/6 146/43/6 
f 60/49/5 59/29/5 83/30/5 
f 83/30/5 145/48/5 60/49/5 
f 39/41/6 37/11/6 142/12/6 
f 142/12/6 139/40/6 39/41/6 
f 148/24/6 36/23/6 31/49/6 
f 31/49/6 149/48/6 148/24/6 
f 31/1/2 36/2/2 35/3/2 
f 35/3/2 32/4/2 31/1/2 
f 44/14/2 22/34/2 11/31/2 
f 11/31/2 32/4/2 44/14/2 
f 44/14/2 43/13/2 50/18/2 
f 50/18/2 48/19/2 44/14/2 
f 56/26/2 29/35/2 23/33/2 
f 23/33/2 48/19/2 56/26/2 
f 99/12/4 95/8/4 94/7/4 
f 94/7/4 96/9/4 99/12/4 
f 99/12/4 98/11/4 110/22/4 
f 110/22/4 105/17/4 99/12/4 
f 112/24/4 109/21/4 104/16/4 
f 104/16/4 105/17/4 112/24/4 
f 112/24/4 111/23/4 129/29/4 
f 129/29/4 118/30/4 112/24/4 
f 120/37/5 130/4/5 117/31/5 
f 117/31/5 118/42/5 120/37/5 
f 4/4/1 98/31/1 97/32/1 
f 97/32/1 1/1/1 4/4/1 
f 1/26/6 97/35/6 96/44/6 
f 96/44/6 146/43/6 1/26/6 
f 123/40/5 122/39/5 28/7/5 
f 28/7/5 30/9/5 123/40/5 
f 14/14/1 110/34/1 98/31/1 
f 98/31/1 4/4/1 14/14/1 
f 150/45/6 5/27/6 2/25/6 
f 2/25/6 147/46/6 150/45/6 
f 151/47/6 7/28/6 5/27/6 
f 5/27/6 150/45/6 151/47/6 
f 149/48/6 31/49/6 10/29/6 
f 10/29/6 9/30/6 149/48/6 
f 12/12/1 8/8/1 7/7/1 
f 7/7/1 9/9/1 12/12/1 
f 12/12/1 11/11/1 22/22/1 
f 22/22/1 17/17/1 12/12/1 
f 24/24/1 21/21/1 16/16/1 
f 16/16/1 17/17/1 24/24/1 
f 30/30/1 28/28/1 21/21/1 
f 21/21/1 24/24/1 30/30/1 
f 64/4/3 41/31/3 40/32/3 
f 40/32/3 61/1/3 64/4/3 
f 64/4/3 63/3/3 73/13/3 
f 73/13/3 71/14/3 64/4/3 
f 77/19/3 53/33/3 52/34/3 
f 52/34/3 71/14/3 77/19/3 
f 77/19/3 76/18/3 85/25/3 
f 85/25/3 83/26/3 77/19/3 
f 146/43/6 96/44/6 94/33/6 
f 94/33/6 144/19/6 146/43/6 
f 131/43/5 133/46/5 86/25/5 
f 86/25/5 87/26/5 131/43/5 
f 126/17/5 57/22/5 58/23/5 
f 58/23/5 152/24/5 126/17/5 
f 145/48/5 152/24/5 58/23/5 
f 58/23/5 60/49/5 145/48/5 
f 139/40/6 61/9/6 40/10/6 
f 40/10/6 39/41/6 139/40/6 
f 19/19/1 111/33/1 110/34/1 
f 110/34/1 14/14/1 19/19/1 
f 143/17/6 33/22/6 36/23/6 
f 36/23/6 148/24/6 143/17/6 
f 26/26/1 129/35/1 111/33/1 
f 111/33/1 19/19/1 26/26/1 
f 30/9/5 29/10/5 56/41/5 
f 56/41/5 123/40/5 30/9/5 
f 9/30/6 7/28/6 151/47/6 
f 151/47/6 149/48/6 9/30/6 
f 42/12/2 38/8/2 37/7/2 
f 37/7/2 39/9/2 42/12/2 
f 42/12/2 41/11/2 52/22/2 
f 52/22/2 47/17/2 42/12/2 
f 54/24/2 51/21/2 46/16/2 
f 46/16/2 47/17/2 54/24/2 
f 60/30/2 58/28/2 51/21/2 
f 51/21/2 54/24/2 60/30/2 
f 91/4/4 101/31/4 125/32/4 
f 125/32/4 88/1/4 91/4/4 
f 91/4/4 90/3/4 103/13/4 
f 103/13/4 100/14/4 91/4/4 
f 123/32/3 149/10/3 146/29/3 
f 146/29/3 120/35/3 123/32/3 
f 120/32/2 146/10/2 135/29/2 
f 135/29/2 131/35/2 120/32/2 
f 131/32/1 135/10/1 139/29/1 
f 139/29/1 145/35/1 131/32/1 
f 145/32/4 139/10/4 149/29/4 
f 149/29/4 123/35/4 145/32/4 
# 280 faces

